<?xml version="1.0" encoding="iso-8859-1"?>
<!-- Generator: Adobe Illustrator 16.0.0, SVG Export Plug-In . SVG Version: 6.00 Build 0)  -->
<!DOCTYPE svg PUBLIC "-//W3C//DTD SVG 1.1//EN" "http://www.w3.org/Graphics/SVG/1.1/DTD/svg11.dtd">
<svg version="1.1" id="Capa_1" xmlns="http://www.w3.org/2000/svg" xmlns:xlink="http://www.w3.org/1999/xlink" x="0px" y="0px"
	 width="427.887px" height="427.887px" viewBox="0 0 427.887 427.887" style="enable-background:new 0 0 427.887 427.887;"
	 xml:space="preserve" fill="gray">
<g>
	<path d="M420.954,369.39h-37.467V58.501h37.467c3.636,0,6.58-2.949,6.58-6.58c0-3.638-2.944-6.583-6.58-6.583h-38.741V6.581
		c0-3.631-2.95-6.581-6.581-6.581c-3.64,0-6.58,2.949-6.58,6.581v38.753H58.847V6.581C58.847,2.949,55.9,0,52.267,0
		c-3.641,0-6.581,2.949-6.581,6.581v38.753H6.933c-3.638,0-6.58,2.945-6.58,6.583c0,3.631,2.942,6.581,6.58,6.581h38.753V369.39
		H6.933c-3.638,0-6.58,2.949-6.58,6.58c0,3.641,2.942,6.581,6.58,6.581h38.753v38.755c0,3.631,2.94,6.581,6.581,6.581
		c3.633,0,6.581-2.95,6.581-6.581v-38.167h310.205v38.167c0,3.631,2.94,6.581,6.58,6.581c3.631,0,6.581-2.95,6.581-6.581v-38.755
		h38.741c3.636,0,6.58-2.94,6.58-6.581C427.534,372.339,424.59,369.39,420.954,369.39z M159.012,369.689H58.847V268.787h100.165
		V369.689z M159.012,264.399H58.847v-100.61h100.165V264.399z M159.012,159.105H58.847V58.501h100.165V159.105z M264.304,369.689
		H163.399V268.787h100.905V369.689z M264.304,264.399H163.399v-100.61h100.905V264.399z M264.304,159.105H163.399V58.501h100.905
		V159.105z M369.593,369.689H268.69V268.787h100.902V369.689z M369.593,264.399H268.69v-100.61h100.902V264.399z M369.593,159.105
		H268.69V58.501h100.902V159.105z M361.649,255.364h-82.831v-82.838h82.831V255.364z"/>
</g>
<g>
</g>
<g>
</g>
<g>
</g>
<g>
</g>
<g>
</g>
<g>
</g>
<g>
</g>
<g>
</g>
<g>
</g>
<g>
</g>
<g>
</g>
<g>
</g>
<g>
</g>
<g>
</g>
<g>
</g>
</svg>
