<?xml version="1.0" encoding="iso-8859-1"?>
<!-- Generator: Adobe Illustrator 19.0.0, SVG Export Plug-In . SVG Version: 6.00 Build 0)  -->
<svg version="1.1" id="Capa_1" xmlns="http://www.w3.org/2000/svg" xmlns:xlink="http://www.w3.org/1999/xlink" x="0px" y="0px"
	 viewBox="0 0 512 512" style="enable-background:new 0 0 512 512;" xml:space="preserve" fill="orange">
<g>
	<g>
		<path d="M256,0C114.844,0,0,114.844,0,256s114.844,256,256,256s256-114.844,256-256S397.156,0,256,0z M277.948,124.708
			c1.656-5.344,6.302-9.177,11.854-9.75l20.969-2.333l6.833-18.24c4.219-10.948,22.052-10.802,26.115-0.021l6.844,18.26
			l21.031,2.333c5.49,0.573,10.135,4.406,11.792,9.75c1.625,5.292-0.031,11.052-4.229,14.677l-16.646,14.281l4.75,21.365
			c1.26,5.542-1.094,11.448-5.885,14.635c-1.75,1.167-5.625,2.333-7.729,2.333c-2.208,0-6.281-1.302-8.083-2.583l-14.896-10.635
			l-14.865,10.615c-1.813,1.292-5.885,2.604-8.104,2.604c-2.688,0-5.313-0.771-7.583-2.229c-4.906-3.271-7.271-9.146-6.042-14.719
			l4.75-21.385l-16.625-14.26C277.979,135.76,276.323,130,277.948,124.708z M128.615,124.708c1.656-5.344,6.302-9.177,11.854-9.75
			l20.969-2.333l6.833-18.24c4.219-10.948,22.052-10.802,26.115-0.021l6.844,18.26l21.031,2.333
			c5.49,0.573,10.135,4.406,11.792,9.75c1.625,5.292-0.031,11.052-4.229,14.677l-16.646,14.281l4.75,21.365
			c1.26,5.542-1.094,11.448-5.885,14.635c-1.75,1.167-5.625,2.333-7.729,2.333c-2.208,0-6.281-1.302-8.083-2.583l-14.896-10.635
			l-14.865,10.615c-1.813,1.292-5.885,2.604-8.104,2.604c-2.688,0-5.313-0.771-7.583-2.229c-4.906-3.271-7.271-9.146-6.042-14.719
			l4.75-21.385l-16.625-14.26C128.646,135.76,126.99,130,128.615,124.708z M105.031,309.333c-2.688,0-5.313-0.771-7.583-2.229
			c-4.906-3.271-7.271-9.146-6.042-14.719L96.156,271l-16.625-14.26c-4.219-3.646-5.875-9.406-4.25-14.698
			c1.656-5.344,6.302-9.177,11.854-9.75l20.969-2.333l6.833-18.24c4.208-10.948,22.063-10.802,26.115-0.021l6.844,18.26
			l21.031,2.333c5.49,0.573,10.135,4.406,11.792,9.75c1.625,5.292-0.031,11.052-4.229,14.677L159.844,271l4.75,21.365
			c1.26,5.542-1.094,11.448-5.885,14.635c-1.75,1.167-5.625,2.333-7.729,2.333c-2.208,0-6.281-1.302-8.083-2.583L128,296.115
			l-14.865,10.615C111.323,308.021,107.25,309.333,105.031,309.333z M229.823,374.052l-16.646,14.281l4.75,21.365
			c1.26,5.542-1.094,11.448-5.885,14.635c-1.75,1.167-5.625,2.333-7.729,2.333c-2.208,0-6.281-1.302-8.083-2.583l-14.896-10.635
			l-14.865,10.615c-1.813,1.292-5.885,2.604-8.104,2.604c-2.688,0-5.313-0.771-7.583-2.229c-4.906-3.271-7.271-9.146-6.042-14.719
			l4.75-21.385l-16.625-14.26c-4.219-3.646-5.875-9.406-4.25-14.698c1.656-5.344,6.302-9.177,11.854-9.75l20.969-2.333l6.833-18.24
			c4.219-10.948,22.052-10.802,26.115-0.021l6.844,18.26l21.031,2.333c5.49,0.573,10.135,4.406,11.792,9.75
			C235.677,364.667,234.021,370.427,229.823,374.052z M256,296.115l-14.865,10.615c-1.813,1.292-5.885,2.604-8.104,2.604
			c-2.688,0-5.313-0.771-7.583-2.229c-4.906-3.271-7.271-9.146-6.042-14.719l4.75-21.385l-16.625-14.26
			c-4.219-3.646-5.875-9.406-4.25-14.698c1.656-5.344,6.302-9.177,11.854-9.75l20.969-2.333l6.833-18.24
			c4.219-10.948,22.052-10.802,26.115-0.021l6.844,18.26l21.031,2.333c5.49,0.573,10.135,4.406,11.792,9.75
			c1.625,5.292-0.031,11.052-4.229,14.677L287.844,271l4.75,21.365c1.26,5.542-1.094,11.448-5.885,14.635
			c-1.75,1.167-5.625,2.333-7.729,2.333c-2.208,0-6.281-1.302-8.083-2.583L256,296.115z M379.156,374.052l-16.646,14.281
			l4.75,21.365c1.26,5.542-1.094,11.448-5.885,14.635c-1.75,1.167-5.625,2.333-7.729,2.333c-2.208,0-6.281-1.302-8.083-2.583
			l-14.896-10.635l-14.865,10.615c-1.813,1.292-5.885,2.604-8.104,2.604c-2.688,0-5.313-0.771-7.583-2.229
			c-4.906-3.271-7.271-9.146-6.042-14.719l4.75-21.385l-16.625-14.26c-4.219-3.646-5.875-9.406-4.25-14.698
			c1.656-5.344,6.302-9.177,11.854-9.75l20.969-2.333l6.833-18.24c4.219-10.948,22.052-10.802,26.115-0.021l6.844,18.26
			l21.031,2.333c5.49,0.573,10.135,4.406,11.792,9.75C385.01,364.667,383.354,370.427,379.156,374.052z M432.49,256.719L415.844,271
			l4.75,21.365c1.26,5.542-1.094,11.448-5.885,14.635c-1.75,1.167-5.625,2.333-7.729,2.333c-2.208,0-6.281-1.302-8.083-2.583
			L384,296.115l-14.865,10.615c-1.813,1.292-5.885,2.604-8.104,2.604c-2.688,0-5.313-0.771-7.583-2.229
			c-4.906-3.271-7.271-9.146-6.042-14.719l4.75-21.385l-16.625-14.26c-4.219-3.646-5.875-9.406-4.25-14.698
			c1.656-5.344,6.302-9.177,11.854-9.75l20.969-2.333l6.833-18.24c4.208-10.948,22.063-10.802,26.115-0.021l6.844,18.26
			l21.031,2.333c5.49,0.573,10.135,4.406,11.792,9.75C438.344,247.333,436.688,253.094,432.49,256.719z"/>
	</g>
</g>
<g>
</g>
<g>
</g>
<g>
</g>
<g>
</g>
<g>
</g>
<g>
</g>
<g>
</g>
<g>
</g>
<g>
</g>
<g>
</g>
<g>
</g>
<g>
</g>
<g>
</g>
<g>
</g>
<g>
</g>
</svg>
