<?xml version="1.0"?>
<svg xmlns="http://www.w3.org/2000/svg" viewBox="0 0 512 512" width="512" height="512"><g id="outline"><path d="M344,32c-83.813,0-152,68.187-152,152a153.231,153.231,0,0,0,.841,16H61a45.051,45.051,0,0,0-45,45V395a45.051,45.051,0,0,0,45,45h8.437l53.914,38.51A8,8,0,0,0,136,472V440H275a45.051,45.051,0,0,0,45-45V334.1a152.546,152.546,0,0,0,24,1.9c2.647,0,5.32-.071,8-.213V360a8,8,0,0,0,13.314,5.979l60.833-54.073A151.436,151.436,0,0,0,496,184C496,100.187,427.813,32,344,32ZM304,395a29.033,29.033,0,0,1-29,29H128a8,8,0,0,0-8,8v24.455L76.649,425.49A8,8,0,0,0,72,424H61a29.033,29.033,0,0,1-29-29V245a29.033,29.033,0,0,1,29-29H195.4A152.517,152.517,0,0,0,304,330.648Zm113-96.237a8.12,8.12,0,0,0-1.014.766L368,342.185V327.111a8,8,0,0,0-8-8,8.118,8.118,0,0,0-.879.048A138.2,138.2,0,0,1,344,320c-74.99,0-136-61.009-136-136S269.01,48,344,48s136,61.009,136,136A135.509,135.509,0,0,1,417,298.763Z"/><path d="M347.013,90.569A64,64,0,0,0,280,154.5a8,8,0,0,0,16,0,48,48,0,0,1,50.277-47.947,48.01,48.01,0,0,1,18.235,91.359A50.576,50.576,0,0,0,336,243.607V245.5a8,8,0,0,0,16,0v-1.893a34.512,34.512,0,0,1,19.357-31.234,63.935,63.935,0,0,0,36.574-60.886C406.428,118.83,379.669,92.072,347.013,90.569Z"/><circle cx="344" cy="278" r="12"/><circle cx="120" cy="305.969" r="16"/><circle cx="200" cy="305.969" r="16"/><path d="M195,347.722a55.722,55.722,0,0,1-70,0,8,8,0,1,0-10,12.494,72.034,72.034,0,0,0,90,0,8,8,0,0,0-10-12.494Z"/></g></svg>
